<?xml version="1.0" encoding="utf-8"?>
<!-- Generator: Adobe Illustrator 25.3.0, SVG Export Plug-In . SVG Version: 6.00 Build 0)  -->
<svg version="1.1" id="레이어_1" xmlns="http://www.w3.org/2000/svg" xmlns:xlink="http://www.w3.org/1999/xlink" x="0px"
	 y="0px" viewBox="0 0 54 50" style="enable-background:new 0 0 54 50;" xml:space="preserve">
<style type="text/css">
	.st0{fill:#141312;}
	.st1{fill:none;stroke:#000000;stroke-width:3;stroke-linecap:round;stroke-linejoin:round;stroke-miterlimit:10;}
</style>
<path class="st0" d="M1.8,32L35.4,6.4c1.1-2.5,3.7-5.3,6.1-4.6c2.5,0.8,2.4,4.7,2.4,4.7s3.6-1.1,5.1,2.6c1,2.5-0.5,4.1-0.5,4.1
	s3.6,0.3,3.8,3.9c0.1,3.1-2.7,3.8-4.8,4.1L12.5,48.3"/>
<path class="st1" d="M1.8,32L35.4,6.4c1.1-2.5,3.7-5.3,6.1-4.6c2.5,0.8,2.4,4.7,2.4,4.7s3.6-1.1,5.1,2.6c1,2.5-0.5,4.1-0.5,4.1
	s3.6,0.3,3.8,3.9c0.1,3.1-2.7,3.8-4.8,4.1L12.5,48.3"/>
</svg>
