<?xml version="1.0" encoding="utf-8"?>
<!-- Generator: Adobe Illustrator 25.4.0, SVG Export Plug-In . SVG Version: 6.00 Build 0)  -->
<svg version="1.1" id="레이어_1" xmlns="http://www.w3.org/2000/svg" xmlns:xlink="http://www.w3.org/1999/xlink" x="0px"
	 y="0px" viewBox="0 0 231 558" style="enable-background:new 0 0 231 558;" xml:space="preserve">
<style type="text/css">
	.st0{fill:#FFFFFF;}
	.st1{fill:none;stroke:#000000;stroke-width:18;stroke-linecap:round;stroke-linejoin:round;stroke-miterlimit:10;}
</style>
<path id="fill" class="st0" d="M16.2,548.8l3-437.8c-12-28.8-16.3-73.2,5.5-88.7C47.4,6.2,76.1,37.1,76.1,37.1s15.7-39.5,53.3-24.4
	C154.8,22.9,157.3,49,157.3,49s26.9-30.1,54-3.4c16.8,16.5,11,52.2-0.2,73.4l0.3,408.3"/>
<path id="line" class="st1" d="M16.2,548.8l3-437.8c-12-28.8-16.3-73.2,5.5-88.7C47.4,6.2,76.1,37.1,76.1,37.1s15.7-39.5,53.3-24.4
	C154.8,22.9,157.3,49,157.3,49s26.9-30.1,54-3.4c16.8,16.5,11,52.2-0.2,73.4l0.3,408.3"/>
</svg>
